Genre:Crime | Drama | Thriller
Language:English 
http://www.imdb.com/title/tt1598873/
Source:DvD Thanks!
Encoder:Tony

Format : AVI
Format/Info : Audio Video Interleave
File size : 1.30 GiB
Duration : 1h 43mn
Overall bit rate : 1 803 Kbps

Video
ID : 0
Format : MPEG-4 Visual
Format profile : Advanced Simple@L5
Format settings, BVOP : 1
Format settings, QPel : No
Format settings, GMC : No warppoints
Format settings, Matrix : Default (H.263)
Codec ID : XVID
Codec ID/Hint : XviD
Duration : 1h 43mn
Bit rate : 1 410 Kbps
Width : 640 pixels
Height : 272 pixels
Display aspect ratio : 2.35:1
Frame rate : 25.000 fps
Color space : YUV
Chroma subsampling : 4:2:0
Bit depth : 8 bits
Scan type : Progressive
Compression mode : Lossy
Bits/(Pixel*Frame) : 0.324
Stream size : 1.02 GiB (78%)
Writing library : XviD 1.2.1 (UTC 2008-12-04)

Audio
ID : 1
Format : AC-3
Format/Info : Audio Coding 3
Mode extension : CM (complete main)
Format settings, Endianness : Big
Codec ID : 2000
Duration : 1h 43mn
Bit rate mode : Constant
Bit rate : 384 Kbps
Channel(s) : 6 channels
Channel positions : Front: L C R, Side: L R, LFE
Sampling rate : 48.0 KHz
Bit depth : 16 bits
Compression mode : Lossy
Stream size : 284 MiB (21%)
Alignment : Aligned on interleaves
Interleave, duration : 40 ms (1.00 video frame)
Interleave, preload duration : 512 ms


Plot:
Ewan is a secret service agent faced with the task of pursuing and eliminating a suicide bomber and his terrorist cell.
 
http://img507.imageshack.us/img507/4320/vlcsnap2012070119h23m50.png 
http://img52.imageshack.us/img52/8057/vlcsnap2012070119h24m08.png 
http://img528.imageshack.us/img528/1074/vlcsnap2012070119h24m19.png 
http://img811.imageshack.us/img811/9620/vlcsnap2012070119h24m53.png